# Blender v3.0.1 OBJ File: 'counter.blend'
# www.blender.org
mtllib counter.mtl
o Cube
v 0.249791 0.895686 -0.824893
v -0.125486 0.623640 1.214326
v -0.125486 0.366202 1.214326
v -0.125486 0.106846 1.214326
v -0.125486 0.106846 0.199679
v -0.125486 0.366202 0.199679
v -0.125486 0.598703 0.199679
v -0.132755 0.623773 0.207567
v -0.125486 0.856141 1.214326
v -0.125486 0.598703 1.214326
v -0.125486 0.339347 1.214326
v -0.125486 0.339347 0.199679
v -0.125486 0.623640 0.235936
v 0.249791 0.013485 -0.810656
v -0.125486 0.366202 0.235936
v -0.125486 0.106846 0.235936
v -0.125486 0.106846 -0.778711
v -0.125486 0.366202 -0.778711
v -0.132755 0.856274 0.207567
v -0.125486 0.339347 0.235936
v -0.125486 0.856141 0.235936
v -0.125486 0.598703 0.235936
v -0.125486 0.339347 -0.778711
v -0.125486 0.598703 -0.778711
v 0.249791 0.895686 1.288570
v -0.132755 0.623773 -0.770823
v 0.249791 0.013485 1.302807
v -0.132755 0.856274 -0.770823
v -0.264329 0.895686 -0.824893
v -0.264329 0.013485 -0.810656
v -0.264329 0.895686 1.302807
v -0.264329 0.013485 1.302807
v -0.261355 0.013485 1.300927
v -0.261355 0.895686 1.300927
v -0.261355 0.895686 1.800810
v -0.261355 0.013485 1.815047
v -1.375034 0.013485 1.300927
v -1.375034 0.895686 1.286690
v -1.375034 0.895686 1.800810
v -1.375034 0.013485 1.815047
v 0.249791 0.856274 0.207567
v 0.249791 0.623773 0.207567
v 0.249791 0.623773 -0.770823
v 0.249791 0.856274 -0.770823
v -0.264329 0.895686 1.300927
v -0.264329 0.013485 1.300927
v 0.249791 0.339347 0.199679
v 0.249791 0.106846 0.199679
v 0.249791 0.366202 -0.778711
v 0.249791 0.339347 -0.778711
v 0.249791 0.106846 -0.778711
v 0.249791 0.339347 0.235936
v 0.249791 0.106846 0.235936
v 0.249791 0.339347 1.214326
v 0.249791 0.106846 1.214326
v 0.249791 0.598703 -0.778711
v 0.249791 0.598703 0.199679
v 0.249791 0.598703 0.235936
v 0.249791 0.366202 0.199679
v 0.249791 0.366202 0.235936
v 0.249791 0.598703 1.214326
v 0.249791 0.366202 1.214326
v 0.249791 0.856141 0.235936
v 0.249791 0.623640 0.235936
v 0.249791 0.856141 1.214326
v 0.249791 0.623640 1.214326
v -0.261355 0.013485 1.302807
v -0.261355 0.895686 1.302807
v -1.435315 0.895930 1.296068
v -0.264231 0.895930 1.296068
v 0.277838 0.895930 -0.896427
v 0.277838 0.895930 1.298020
v -0.264231 0.895930 -0.896427
v -0.261095 0.895930 1.829888
v -1.435315 0.895930 1.829888
v -0.261355 0.895930 1.302807
v -0.261355 0.895930 1.300927
v -0.264329 0.895930 1.302807
v -1.435315 0.976120 1.296068
v -0.264231 0.976120 1.296068
v 0.277838 0.976120 -0.896427
v 0.277838 0.976120 1.298020
v -0.264231 0.976120 -0.896427
v -0.261095 0.974042 1.829888
v -1.435315 0.976120 1.829888
v -0.261095 0.976120 1.298020
v -0.261095 0.976120 1.296068
v -0.264231 0.974042 1.298020
vt 0.700008 0.221807
vt 0.700114 0.221807
vt 0.700008 0.222323
vt 0.700114 0.222323
vt 0.728162 0.222323
vt 0.580281 0.221807
vt 0.581125 0.108648
vt 0.700050 0.108648
vt 0.328482 0.161927
vt 0.328482 0.162760
vt 0.209557 0.162760
vt 0.209557 0.018670
vt 0.328588 0.018670
vt 0.328588 0.162760
vt 0.328588 0.161927
vt 0.509144 0.599006
vt 0.509119 0.603390
vt 0.454017 0.603088
vt 0.451975 0.603077
vt 0.396873 0.602775
vt 0.396897 0.598391
vt 0.452000 0.598693
vt 0.454041 0.598704
vt 0.509378 0.556975
vt 0.509355 0.561046
vt 0.454253 0.560744
vt 0.454275 0.556673
vt 0.452211 0.560733
vt 0.397109 0.560431
vt 0.396662 0.640735
vt 0.451764 0.641037
vt 0.453806 0.641048
vt 0.508908 0.641350
vt 0.509589 0.519015
vt 0.454487 0.518713
vt 0.452889 0.518682
vt 0.513806 0.512581
vt 0.513806 0.656620
vt 0.394778 0.655968
vt 0.394778 0.511930
vt 0.397787 0.518381
vt 0.397576 0.556341
vt 0.452678 0.556642
vt 0.209557 0.655483
vt 0.209557 0.511392
vt 0.353647 0.511392
vt 0.353647 0.655483
vt 0.357437 0.161927
vt 0.357437 0.474052
vt 0.328482 0.474052
vt 0.394817 0.018699
vt 0.538908 0.018670
vt 0.538869 0.162505
vt 0.394778 0.162534
vt 0.018670 0.900899
vt 0.018670 0.787736
vt 0.047625 0.787520
vt 0.047625 0.900683
vt 0.538908 0.474561
vt 0.394817 0.474590
vt 0.943370 0.324434
vt 0.943370 0.296389
vt 0.943409 0.296389
vt 0.943410 0.326071
vt 0.576248 0.363532
vt 0.720339 0.363532
vt 0.720338 0.674824
vt 0.576248 0.674824
vt 0.917769 0.957679
vt 0.917769 0.902576
vt 0.955729 0.902580
vt 0.955729 0.957683
vt 0.767140 0.643865
vt 0.767140 0.536675
vt 0.805114 0.536677
vt 0.805114 0.643867
vt 0.487221 0.801174
vt 0.487221 0.693960
vt 0.525195 0.693960
vt 0.525195 0.801174
vt 0.209557 0.835340
vt 0.264660 0.835373
vt 0.264660 0.901746
vt 0.209557 0.901713
vt 0.141188 0.643362
vt 0.086084 0.643362
vt 0.086084 0.536148
vt 0.141188 0.536148
vt 0.706666 0.909788
vt 0.668706 0.909784
vt 0.668706 0.854681
vt 0.706666 0.854684
vt 0.880429 0.681230
vt 0.880429 0.786384
vt 0.842454 0.786382
vt 0.842454 0.681229
vt 0.817618 0.489402
vt 0.817618 0.384225
vt 0.855592 0.384225
vt 0.855592 0.489402
vt 0.972872 0.601819
vt 0.917769 0.601786
vt 0.917769 0.536675
vt 0.972872 0.536708
vt 0.576248 0.712164
vt 0.631352 0.712164
vt 0.631352 0.817341
vt 0.576248 0.817341
vt 0.943370 0.203563
vt 0.981330 0.203566
vt 0.981330 0.258670
vt 0.943370 0.258666
vt 0.805114 0.823726
vt 0.805114 0.928879
vt 0.767140 0.928878
vt 0.767140 0.823724
vt 0.906030 0.018670
vt 0.906030 0.123847
vt 0.868055 0.123847
vt 0.868055 0.018670
vt 0.972872 0.639192
vt 0.972872 0.704304
vt 0.917769 0.704271
vt 0.917769 0.639159
vt 0.302000 0.692823
vt 0.357103 0.692823
vt 0.357103 0.798000
vt 0.302000 0.798000
vt 0.981330 0.166223
vt 0.943370 0.166220
vt 0.943370 0.111116
vt 0.981330 0.111120
vt 0.124059 0.823221
vt 0.124059 0.928374
vt 0.086084 0.928373
vt 0.086084 0.823219
vt 0.880429 0.536675
vt 0.880429 0.641852
vt 0.842454 0.641852
vt 0.842454 0.536675
vt 0.525195 0.903659
vt 0.470092 0.903625
vt 0.470092 0.838514
vt 0.525195 0.838547
vt 0.264660 0.798000
vt 0.209557 0.798000
vt 0.209557 0.692823
vt 0.264660 0.692823
vt 0.432738 0.891584
vt 0.394777 0.891580
vt 0.394777 0.836477
vt 0.432738 0.836480
vt 0.906030 0.161188
vt 0.906030 0.266342
vt 0.868055 0.266340
vt 0.868055 0.161187
vt 0.668691 0.817341
vt 0.668691 0.712164
vt 0.706666 0.712164
vt 0.706666 0.817341
vt 0.357438 0.901621
vt 0.302334 0.901588
vt 0.302334 0.836477
vt 0.357438 0.836510
vt 0.449881 0.799137
vt 0.394778 0.799137
vt 0.394778 0.693960
vt 0.449881 0.693960
vt 0.981330 0.073777
vt 0.943370 0.073773
vt 0.943370 0.018670
vt 0.981330 0.018673
vt 0.880429 0.823725
vt 0.880429 0.928879
vt 0.842454 0.928877
vt 0.842454 0.823724
vt 0.767140 0.786384
vt 0.767140 0.681207
vt 0.805114 0.681207
vt 0.805114 0.786384
vt 0.631352 0.919826
vt 0.576248 0.919793
vt 0.576248 0.854681
vt 0.631352 0.854714
vt 0.141188 0.785879
vt 0.086084 0.785879
vt 0.086084 0.680702
vt 0.141188 0.680702
vt 0.943410 0.296009
vt 0.956503 0.296021
vt 0.956503 0.296131
vt 0.699734 0.221856
vt 0.576252 0.221856
vt 0.700008 0.222355
vt 0.729800 0.222400
vt 0.700114 0.222355
vt 0.943370 0.296283
vt 0.699091 0.029098
vt 0.699613 0.018670
vt 0.699841 0.232686
vt 0.699731 0.232686
vt 0.729796 0.232686
vt 0.161399 0.823220
vt 0.162199 0.823219
vt 0.162277 0.836317
vt 0.161399 0.836317
vt 0.956503 0.326083
vt 0.141730 0.026531
vt 0.022699 0.026531
vt 0.018670 0.018670
vt 0.142262 0.018670
vt 0.170579 0.481913
vt 0.170579 0.169787
vt 0.172217 0.169714
vt 0.172217 0.498808
vt 0.817618 0.346885
vt 0.817618 0.018670
vt 0.830715 0.018670
vt 0.830715 0.346885
vt 0.767140 0.170315
vt 0.767181 0.018671
vt 0.780278 0.018670
vt 0.780237 0.170314
vt 0.022699 0.170621
vt 0.018670 0.170593
vt 0.141624 0.481913
vt 0.142152 0.498808
vt 0.699897 0.326192
vt 0.576305 0.326192
vt 0.576248 0.232142
vt 0.699731 0.232142
vt 0.018670 0.546434
vt 0.048735 0.546450
vt 0.048744 0.750180
vt 0.018789 0.749620
vt 0.018679 0.749619
vt 0.018679 0.536148
vt 0.048744 0.536164
vt 0.767181 0.499335
vt 0.780278 0.499334
vt 0.917769 0.865235
vt 0.917769 0.741644
vt 0.930861 0.741645
vt 0.930861 0.865237
vt 0.892932 0.489401
vt 0.892932 0.337478
vt 0.906030 0.337478
vt 0.906030 0.489401
vn 0.0000 1.0000 0.0000
vn -1.0000 0.0000 0.0000
vn 0.0000 -1.0000 -0.0000
vn 1.0000 0.0000 0.0000
vn 0.0000 -0.0161 -0.9999
vn 0.7078 0.0114 0.7063
vn 0.0000 0.0161 0.9999
vn 0.9854 -0.1702 -0.0060
vn 0.0064 -0.0081 -0.9999
vn 0.0000 0.0000 1.0000
vn 0.0000 0.0000 -1.0000
vn 0.9999 -0.0003 0.0113
vn -0.9269 0.3752 0.0000
vn -0.0811 0.9919 0.0977
vn -0.8874 0.4610 0.0002
vn 0.9961 -0.0880 0.0114
vn 0.0006 0.9951 -0.0989
vn -1.0000 0.0032 0.0000
vn -1.0000 0.0017 0.0002
vn -0.6285 0.0246 0.7775
vn 1.0000 -0.0008 -0.0060
vn 0.0087 -1.0000 0.0000
vn 0.0000 -1.0000 0.0084
vn 0.7024 0.0000 0.7118
vn 0.0000 -1.0000 -0.0034
vn -0.0040 -1.0000 0.0000
vn 0.0073 -0.9999 0.0073
vn 0.0000 1.0000 0.0039
vn 0.0018 1.0000 0.0019
usemtl Material
s off
f 45/1/1 31/2/1 34/3/1
f 34/3/1 31/2/1 68/4/1
f 31/2/1 35/5/1 68/4/1
f 45/1/2 29/6/2 30/7/2 46/8/2
f 33/9/3 46/10/3 30/11/3 14/12/3 27/13/3
f 46/10/3 33/9/3 32/14/3
f 33/9/3 67/15/3 32/14/3
f 27/13/3 67/15/3 33/9/3
f 62/16/4 54/17/4 52/18/4 47/19/4 50/20/4 49/21/4 59/22/4 60/23/4
f 66/24/4 61/25/4 58/26/4 64/27/4
f 59/22/4 57/28/4 56/29/4 49/21/4 50/20/4 51/30/4 48/31/4 47/19/4 52/18/4 53/32/4 55/33/4 54/17/4 62/16/4 61/25/4 66/24/4 65/34/4 63/35/4 41/36/4 25/37/4 27/38/4 14/39/4 1/40/4 44/41/4 43/42/4 42/43/4 64/27/4 58/26/4 60/23/4
f 42/43/4 41/36/4 63/35/4 64/27/4
f 44/41/4 1/40/4 25/37/4 41/36/4
f 30/44/5 29/45/5 1/46/5 14/47/5
f 32/14/3 67/15/3 36/48/3 40/49/3 37/50/3 46/10/3
f 27/51/6 25/52/6 35/53/6 36/54/6
f 36/48/3 67/15/3 27/13/3
f 40/55/2 39/56/2 38/57/2 37/58/2
f 36/54/7 35/53/7 39/59/7 40/60/7
f 35/61/8 31/62/8 78/63/8 74/64/8
f 37/65/9 38/66/9 45/67/9 46/68/9
f 8/69/4 26/70/4 28/71/4 19/72/4
f 44/73/10 28/74/10 26/75/10 43/76/10
f 42/77/11 8/78/11 19/79/11 41/80/11
f 26/81/1 8/82/1 42/83/1 43/84/1
f 19/85/3 28/86/3 44/87/3 41/88/3
f 7/89/4 6/90/4 18/91/4 24/92/4
f 56/93/10 24/94/10 18/95/10 49/96/10
f 59/97/11 6/98/11 7/99/11 57/100/11
f 18/101/1 6/102/1 59/103/1 49/104/1
f 7/105/3 24/106/3 56/107/3 57/108/3
f 12/109/4 5/110/4 17/111/4 23/112/4
f 50/113/10 23/114/10 17/115/10 51/116/10
f 48/117/11 5/118/11 12/119/11 47/120/11
f 51/121/1 17/122/1 5/123/1 48/124/1
f 12/125/3 23/126/3 50/127/3 47/128/3
f 11/129/4 4/130/4 16/131/4 20/132/4
f 52/133/10 20/134/10 16/135/10 53/136/10
f 55/137/11 4/138/11 11/139/11 54/140/11
f 16/141/1 4/142/1 55/143/1 53/144/1
f 11/145/3 20/146/3 52/147/3 54/148/3
f 10/149/4 3/150/4 15/151/4 22/152/4
f 58/153/10 22/154/10 15/155/10 60/156/10
f 62/157/11 3/158/11 10/159/11 61/160/11
f 15/161/1 3/162/1 62/163/1 60/164/1
f 10/165/3 22/166/3 58/167/3 61/168/3
f 9/169/4 2/170/4 13/171/4 21/172/4
f 63/173/10 21/174/10 13/175/10 64/176/10
f 66/177/11 2/178/11 9/179/11 65/180/11
f 13/181/1 2/182/1 66/183/1 64/184/1
f 9/185/3 21/186/3 63/187/3 65/188/3
f 78/63/12 70/189/12 80/190/12 88/191/12
f 29/6/13 45/1/13 70/192/13 73/193/13
f 45/1/14 34/3/14 77/194/14 70/192/14
f 68/4/15 35/5/15 74/195/15 76/196/15
f 31/62/16 45/197/16 70/189/16 78/63/16
f 45/1/17 38/198/17 69/199/17 70/192/17
f 34/3/2 68/4/2 76/196/2 77/194/2
f 77/194/18 76/196/18 86/200/18 87/201/18
f 76/196/19 74/195/19 84/202/19 86/200/19
f 70/203/20 77/204/20 87/205/20 80/206/20
f 74/64/21 78/63/21 88/191/21 84/207/21
usemtl Material.001
f 25/208/22 1/209/22 71/210/22 72/211/22
f 39/212/23 35/213/23 74/214/23 75/215/23
f 70/216/11 69/217/11 79/218/11 80/219/11
f 74/220/24 72/221/24 82/222/24 84/223/24
f 1/209/25 29/224/25 73/225/25 71/210/25
f 38/226/26 39/212/26 75/215/26 69/227/26
f 35/213/27 25/208/27 72/211/27 74/214/27
f 82/228/1 81/229/1 83/230/1 80/231/1 87/201/1 86/200/1
f 84/202/28 82/228/28 86/200/28
f 79/232/29 85/233/29 84/234/29 88/235/29 80/236/29
f 69/237/2 75/238/2 85/233/2 79/232/2
f 75/239/10 74/220/10 84/223/10 85/240/10
f 72/241/4 71/242/4 81/243/4 82/244/4
f 73/193/2 70/192/2 80/231/2 83/230/2
f 71/245/11 73/246/11 83/247/11 81/248/11
